<svg xmlns="http://www.w3.org/2000/svg" xmlns:ev="http://www.w3.org/2001/xml-events" xmlns:xlink="http://www.w3.org/1999/xlink" width="572.667" height="435.175" class="st9" color-interpolation-filters="sRGB" viewBox="0 0 429.5 326.381" xml:space="preserve"><style type="text/css">.st1{fill:#fff;stroke:#70ad47;stroke-dasharray:15,9;stroke-width:1}.st2,.st3{stroke:#ed7d31}.st2{marker-end:url(#mrkr13-10);stroke-linecap:round;stroke-linejoin:round;stroke-width:1}.st3{fill:#ed7d31;fill-opacity:1;stroke-opacity:1;stroke-width:.28409090909091}.st4{fill:#4672c4;stroke:#c8c8c8;stroke-width:.25}.st5{fill:#feffff;font-family:Calibri;font-size:.666664em}.st6{fill:none;stroke:none;stroke-width:.25}.st7{fill:#4672c4;font-family:Calibri;font-size:.833336em}.st8{font-size:1em}.st9{fill:none;fill-rule:evenodd;font-size:12px;overflow:visible;stroke-linecap:square;stroke-miterlimit:3}</style><defs id="Markers"><g id="lend13"><path d="M 3 1 L 0 0 L 3 -1 L 3 1" style="stroke:none"/></g><marker id="mrkr13-10" class="st3" markerUnits="strokeWidth" orient="auto" overflow="visible" refX="-10.56"><use transform="scale(-3.52,-3.52)" xlink:href="#lend13"/></marker></defs><g><title>Page-1</title><g id="group1076-1" transform="translate(26.5,-11.1312)"><title>Sheet.1076</title><g id="group93-2" transform="translate(100.5,5.68434E-14)"><title>Sheet.93</title><g id="shape79-3" transform="translate(-126,-191.25)"><title>Sheet.79</title><path d="M0 326.38 L427.5 326.38 L427.5 231.88 L0 231.88 L0 326.38 Z" class="st1"/></g><g id="shape80-5" transform="translate(546.881,78.8812) rotate(90)"><title>Sheet.80</title><path d="M0 326.38 L236.94 326.38" class="st2"/></g><g id="shape81-11" transform="translate(407.381,63.1312) rotate(90)"><title>Sheet.81</title><path d="M0 326.38 L252.69 326.38" class="st2"/></g><g id="shape82-16" transform="translate(31.5,-263.25)"><title>Process.7</title><desc>__init__</desc><rect width="99" height="18" x="0" y="308.381" class="st4"/><text x="36.25" y="319.78" class="st5">__init__</text></g><g id="shape83-19" transform="translate(31.5,-288)"><title>Process.9</title><desc>DockerBenchmark</desc><rect width="99" height="27" x="0" y="299.381" class="st6"/><text x="12.19" y="315.88" class="st7">DockerBenchmark</text></g><g id="shape84-22" transform="translate(168.75,-288)"><title>Process.10</title><desc>DeriveBenchmark</desc><rect width="99" height="27" x="0" y="299.381" class="st6"/><text x="13.32" y="315.88" class="st7">DeriveBenchmark</text></g><g id="shape85-25" transform="translate(171,-247.5)"><title>Process.12</title><desc>__init__ Init the info to pull or build image</desc><rect width="99" height="33.75" x="0" y="292.631" class="st4"/><text x="36.25" y="302.31" class="st5">__init__<tspan x="5.79" class="st8" dy="1.2em">Init the info to pull or build </tspan><tspan x="39.6" class="st8" dy="1.2em">image</tspan></text></g><g id="shape87-30" transform="translate(171,-198)"><title>Process.15</title><desc>add_parser_auguments() specific configs</desc><rect width="99" height="27" x="0" y="299.381" class="st4"/><text x="8.42" y="310.48" class="st5">add_parser_auguments<tspan class="st8">()</tspan><tspan x="25.01" class="st8" dy="1.2em">specific configs</tspan></text></g><g id="shape92-35" transform="translate(175.5,-146.25)"><title>Process.92</title><desc>Construct the command</desc><rect width="99" height="18" x="0" y="308.381" class="st4"/><text x="10.17" y="319.78" class="st5">Construct the command</text></g></g><g id="shape1064-38" transform="translate(375.881,63.1312) rotate(90)"><title>Sheet.1064</title><path d="M0 326.38 L248.75 326.38" class="st2"/></g><g id="shape1065-43" transform="translate(-7.99361E-14,-263.25)"><title>Process.1065</title><desc>__init__</desc><rect width="99" height="18" x="0" y="308.381" class="st4"/><text x="36.25" y="319.78" class="st5">__init__</text></g><g id="shape1066-46" transform="translate(-7.99361E-14,-288)"><title>Process.1066</title><desc>Benchmark</desc><rect width="99" height="27" x="0" y="299.381" class="st6"/><text x="26.52" y="315.88" class="st7">Benchmark</text></g><g id="shape1067-49" transform="translate(1.5,-199.875)"><title>Process.1067</title><desc>add_parser_auguments() E.g. run_count, duration</desc><rect width="99" height="27" x="0" y="299.381" class="st4"/><text x="8.42" y="310.48" class="st5">add_parser_auguments<tspan class="st8">()</tspan><tspan x="9.92" class="st8" dy="1.2em">E.g. run_count, duration</tspan></text></g><g id="shape1068-54" transform="translate(1.5,-165)"><title>Process.1068</title><desc>parse_args()</desc><rect width="99" height="18" x="0" y="308.381" class="st4"/><text x="29.36" y="319.78" class="st5">parse_args<tspan class="st8">()</tspan></text></g><g id="shape1069-58" transform="translate(1.5,-33.1875)"><title>Process.1069</title><desc>__check_result_format()</desc><rect width="99" height="18" x="0" y="308.381" class="st4"/><text x="9.33" y="319.78" class="st5">__check_result_format()</text></g><g id="shape1070-61" transform="translate(132,-123.75)"><title>Process.1070</title><desc>subprocess.run()</desc><rect width="99" height="18" x="0" y="308.381" class="st4"/><text x="22.28" y="319.78" class="st5">subprocess.run<tspan class="st8">()</tspan></text></g><g id="shape1071-65" transform="translate(271.5,-93.75)"><title>Process.1071</title><desc>_process_raw_result()</desc><rect width="99" height="18" x="0" y="308.381" class="st4"/><text x="13.2" y="319.78" class="st5">_process_raw_result<tspan class="st8">()</tspan></text></g><g id="shape1072-69" transform="translate(272.625,-54)"><title>Process.1072</title><desc>_postprocess()</desc><rect width="99" height="18" x="0" y="308.381" class="st4"/><text x="25.55" y="319.78" class="st5">_postprocess<tspan class="st8">()</tspan></text></g></g></g></svg>