<svg xmlns="http://www.w3.org/2000/svg" xmlns:ev="http://www.w3.org/2001/xml-events" xmlns:xlink="http://www.w3.org/1999/xlink" width="587.667" height="463.925" class="st9" color-interpolation-filters="sRGB" viewBox="0 0 440.75 347.944" xml:space="preserve"><style type="text/css">.st1{fill:#fff;stroke:#70ad47;stroke-dasharray:15,9;stroke-width:1}.st2,.st3{stroke:#ed7d31}.st2{marker-end:url(#mrkr13-9);stroke-linecap:round;stroke-linejoin:round;stroke-width:1}.st3{fill:#ed7d31;fill-opacity:1;stroke-opacity:1;stroke-width:.28409090909091}.st4{fill:#4672c4;stroke:#c8c8c8;stroke-width:.25}.st5{fill:#feffff;font-family:Calibri;font-size:.666664em}.st6{fill:none;stroke:none;stroke-width:.25}.st7{fill:#4672c4;font-family:Calibri;font-size:.833336em}.st8{font-size:1em}.st9{fill:none;fill-rule:evenodd;font-size:12px;overflow:visible;stroke-linecap:square;stroke-miterlimit:3}</style><defs id="Markers"><g id="lend13"><path d="M 3 1 L 0 0 L 3 -1 L 3 1" style="stroke:none"/></g><marker id="mrkr13-9" class="st3" markerUnits="strokeWidth" orient="auto" overflow="visible" refX="-10.56"><use transform="scale(-3.52,-3.52)" xlink:href="#lend13"/></marker></defs><g><title>Page-1</title><g id="group1075-1" transform="translate(1,-11.1312)"><title>Sheet.1075</title><g id="shape56-2" transform="translate(0,-212.25)"><title>Sheet.56</title><path d="M0 347.94 L438.75 347.94 L438.75 253.44 L0 253.44 L0 347.94 Z" class="st1"/></g><g id="shape58-4" transform="translate(707.944,79.4437) rotate(90)"><title>Sheet.58</title><path d="M0 347.94 L257.94 347.94" class="st2"/></g><g id="shape59-10" transform="translate(566.194,63.6937) rotate(90)"><title>Sheet.59</title><path d="M0 347.94 L272.19 347.94" class="st2"/></g><g id="shape60-15" transform="translate(168.75,-284.25)"><title>Process.7</title><desc>__init__</desc><rect width="99" height="18" x="0" y="329.944" class="st4"/><text x="36.25" y="341.34" class="st5">__init__</text></g><g id="shape61-18" transform="translate(155.25,-309)"><title>Process.9</title><desc>MicroBenchmarkWithInvoke</desc><rect width="128.25" height="27" x="0" y="320.944" class="st6"/><text x="5.79" y="337.44" class="st7">MicroBenchmarkWithInvoke</text></g><g id="shape62-21" transform="translate(308.25,-309)"><title>Process.10</title><desc>DeriveBenchmark</desc><rect width="99" height="27" x="0" y="320.944" class="st6"/><text x="13.32" y="337.44" class="st7">DeriveBenchmark</text></g><g id="shape64-24" transform="translate(310.5,-268.5)"><title>Process.12</title><desc>__init__ Init the binary name</desc><rect width="99" height="33.75" x="0" y="314.194" class="st4"/><text x="36.25" y="328.67" class="st5">__init__<tspan x="16.54" class="st8" dy="1.2em">Init the binary name</tspan></text></g><g id="shape66-28" transform="translate(168.75,-221.25)"><title>Process.14</title><desc>add_parser_auguments() E.g. bin_dir</desc><rect width="99" height="27" x="0" y="320.944" class="st4"/><text x="8.42" y="332.04" class="st5">add_parser_auguments<tspan class="st8">()</tspan><tspan x="31.21" class="st8" dy="1.2em">E.g. </tspan>bin_dir</text></g><g id="shape67-33" transform="translate(310.5,-219)"><title>Process.15</title><desc>add_parser_auguments() specific configs</desc><rect width="99" height="27" x="0" y="320.944" class="st4"/><text x="8.42" y="332.04" class="st5">add_parser_auguments<tspan class="st8">()</tspan><tspan x="25.01" class="st8" dy="1.2em">specific configs</tspan></text></g><g id="shape69-38" transform="translate(310.5,-132)"><title>Process.18</title><desc>Construct the command</desc><rect width="99" height="18" x="0" y="329.944" class="st4"/><text x="10.17" y="341.34" class="st5">Construct the command</text></g><g id="shape74-41" transform="translate(310.5,-78)"><title>Process.24</title><desc>_process_raw_result()</desc><rect width="99" height="18" x="0" y="329.944" class="st4"/><text x="13.2" y="341.34" class="st5">_process_raw_result<tspan class="st8">()</tspan></text></g><g id="shape1034-45" transform="translate(425.194,63.1312) rotate(90)"><title>Sheet.1034</title><path d="M0 347.94 L272.75 347.94" class="st2"/></g><g id="shape1035-50" transform="translate(27.75,-284.813)"><title>Process.1000</title><desc>__init__</desc><rect width="99" height="18" x="0" y="329.944" class="st4"/><text x="36.25" y="341.34" class="st5">__init__</text></g><g id="shape1036-53" transform="translate(27.75,-309.563)"><title>Process.1001</title><desc>Benchmark</desc><rect width="99" height="27" x="0" y="320.944" class="st6"/><text x="26.52" y="337.44" class="st7">Benchmark</text></g><g id="shape1037-56" transform="translate(29.25,-221.438)"><title>Process.1002</title><desc>add_parser_auguments() E.g. run_count, duration</desc><rect width="99" height="27" x="0" y="320.944" class="st4"/><text x="8.42" y="332.04" class="st5">add_parser_auguments<tspan class="st8">()</tspan><tspan x="9.92" class="st8" dy="1.2em">E.g. run_count, duration</tspan></text></g><g id="shape1038-61" transform="translate(29.25,-186.563)"><title>Process.1038</title><desc>parse_args()</desc><rect width="99" height="18" x="0" y="329.944" class="st4"/><text x="29.36" y="341.34" class="st5">parse_args<tspan class="st8">()</tspan></text></g><g id="shape1039-65" transform="translate(29.25,-28.5)"><title>Process.1004</title><desc>__check_result_format()</desc><rect width="99" height="18" x="0" y="329.944" class="st4"/><text x="9.33" y="341.34" class="st5">__check_result_format()</text></g><g id="shape1040-68" transform="translate(168.75,-162.75)"><title>Process.1040</title><desc>_set_binary_path()</desc><rect width="99" height="18" x="0" y="329.944" class="st4"/><text x="18.5" y="341.34" class="st5">_set_binary_path<tspan class="st8">()</tspan></text></g><g id="shape1043-72" transform="translate(168.75,-111.75)"><title>Process.1043</title><desc>subprocess.run()</desc><rect width="99" height="18" x="0" y="329.944" class="st4"/><text x="22.28" y="341.34" class="st5">subprocess.run<tspan class="st8">()</tspan></text></g><g id="shape1073-76" transform="translate(310.5,-45)"><title>Process.1073</title><desc>_postprocess()</desc><rect width="99" height="18" x="0" y="329.944" class="st4"/><text x="25.55" y="341.34" class="st5">_postprocess<tspan class="st8">()</tspan></text></g></g></g></svg>