<svg xmlns="http://www.w3.org/2000/svg" xmlns:ev="http://www.w3.org/2001/xml-events" xmlns:xlink="http://www.w3.org/1999/xlink" width="587.667" height="431.925" class="st9" color-interpolation-filters="sRGB" viewBox="0 0 440.75 323.944" xml:space="preserve"><style type="text/css">.st1{fill:#fff;stroke:#70ad47;stroke-dasharray:15,9;stroke-width:1}.st2,.st3{stroke:#ed7d31}.st2{marker-end:url(#mrkr13-9);stroke-linecap:round;stroke-linejoin:round;stroke-width:1}.st3{fill:#ed7d31;fill-opacity:1;stroke-opacity:1;stroke-width:.28409090909091}.st4{fill:#4672c4;stroke:#c8c8c8;stroke-width:.25}.st5{fill:#feffff;font-family:Calibri;font-size:.666664em}.st6{fill:none;stroke:none;stroke-width:.25}.st7{fill:#4672c4;font-family:Calibri;font-size:.833336em}.st8{font-size:1em}.st9{fill:none;fill-rule:evenodd;font-size:12px;overflow:visible;stroke-linecap:square;stroke-miterlimit:3}</style><defs id="Markers"><g id="lend13"><path d="M 3 1 L 0 0 L 3 -1 L 3 1" style="stroke:none"/></g><marker id="mrkr13-9" class="st3" markerUnits="strokeWidth" orient="auto" overflow="visible" refX="-10.56"><use transform="scale(-3.52,-3.52)" xlink:href="#lend13"/></marker></defs><g><title>Page-1</title><g id="group1074-1" transform="translate(1,-11.1312)"><title>Sheet.1074</title><g id="shape1044-2" transform="translate(0,-188.25)"><title>Sheet.1044</title><path d="M0 323.94 L438.75 323.94 L438.75 229.44 L0 229.44 L0 323.94 Z" class="st1"/></g><g id="shape1045-4" transform="translate(683.944,79.4437) rotate(90)"><title>Sheet.1045</title><path d="M0 323.94 L233.94 323.94" class="st2"/></g><g id="shape1046-10" transform="translate(542.194,63.6937) rotate(90)"><title>Sheet.1046</title><path d="M0 323.94 L248.19 323.94" class="st2"/></g><g id="shape1047-15" transform="translate(168.75,-260.25)"><title>Process.1047</title><desc>__init__</desc><rect width="99" height="18" x="0" y="305.944" class="st4"/><text x="36.25" y="317.34" class="st5">__init__</text></g><g id="shape1048-18" transform="translate(155.25,-285)"><title>Process.1048</title><desc>MicroBenchmark</desc><rect width="128.25" height="27" x="0" y="296.944" class="st6"/><text x="29.23" y="313.44" class="st7">MicroBenchmark</text></g><g id="shape1049-21" transform="translate(308.25,-285)"><title>Process.1049</title><desc>DeriveBenchmark</desc><rect width="99" height="27" x="0" y="296.944" class="st6"/><text x="13.32" y="313.44" class="st7">DeriveBenchmark</text></g><g id="shape1050-24" transform="translate(310.5,-244.5)"><title>Process.1050</title><desc>__init__ Init the binary name</desc><rect width="99" height="33.75" x="0" y="290.194" class="st4"/><text x="36.25" y="304.67" class="st5">__init__<tspan x="16.54" class="st8" dy="1.2em">Init the binary name</tspan></text></g><g id="shape1052-28" transform="translate(310.5,-195)"><title>Process.1052</title><desc>add_parser_auguments() specific configs</desc><rect width="99" height="27" x="0" y="296.944" class="st4"/><text x="8.42" y="308.04" class="st5">add_parser_auguments<tspan class="st8">()</tspan><tspan x="25.01" class="st8" dy="1.2em">specific configs</tspan></text></g><g id="shape1053-33" transform="translate(310.5,-139.125)"><title>Process.1053</title><desc>_benchmark()</desc><rect width="99" height="18" x="0" y="305.944" class="st4"/><text x="26.77" y="317.34" class="st5">_benchmark<tspan class="st8">()</tspan></text></g><g id="shape1055-37" transform="translate(401.194,63.1312) rotate(90)"><title>Sheet.1055</title><path d="M0 323.94 L248.75 323.94" class="st2"/></g><g id="shape1056-42" transform="translate(27.75,-260.813)"><title>Process.1056</title><desc>__init__</desc><rect width="99" height="18" x="0" y="305.944" class="st4"/><text x="36.25" y="317.34" class="st5">__init__</text></g><g id="shape1057-45" transform="translate(27.75,-285.563)"><title>Process.1057</title><desc>Benchmark</desc><rect width="99" height="27" x="0" y="296.944" class="st6"/><text x="26.52" y="313.44" class="st7">Benchmark</text></g><g id="shape1058-48" transform="translate(29.25,-197.437)"><title>Process.1058</title><desc>add_parser_auguments() E.g. run_count, duration</desc><rect width="99" height="27" x="0" y="296.944" class="st4"/><text x="8.42" y="308.04" class="st5">add_parser_auguments<tspan class="st8">()</tspan><tspan x="9.92" class="st8" dy="1.2em">E.g. run_count, duration</tspan></text></g><g id="shape1059-53" transform="translate(29.25,-162.562)"><title>Process.1059</title><desc>parse_args()</desc><rect width="99" height="18" x="0" y="305.944" class="st4"/><text x="29.36" y="317.34" class="st5">parse_args<tspan class="st8">()</tspan></text></g><g id="shape1060-57" transform="translate(29.25,-30.75)"><title>Process.1060</title><desc>__check_result_format()</desc><rect width="99" height="18" x="0" y="305.944" class="st4"/><text x="9.33" y="317.34" class="st5">__check_result_format()</text></g><g id="shape1062-60" transform="translate(169.875,-109.5)"><title>Process.1062</title><desc>_process_numeric_result()</desc><rect width="99" height="18" x="0" y="305.944" class="st4"/><text x="5.98" y="317.34" class="st5">_process_numeric_result<tspan class="st8">()</tspan></text></g><g id="shape1063-64" transform="translate(310.5,-72)"><title>Process.1063</title><desc>_postprocess()</desc><rect width="99" height="18" x="0" y="305.944" class="st4"/><text x="25.55" y="317.34" class="st5">_postprocess<tspan class="st8">()</tspan></text></g></g></g></svg>