<svg xmlns="http://www.w3.org/2000/svg" xmlns:ev="http://www.w3.org/2001/xml-events" xmlns:xlink="http://www.w3.org/1999/xlink" width="770.667" height="581.175" class="st9" color-interpolation-filters="sRGB" viewBox="0 0 578 435.881" xml:space="preserve"><style type="text/css">.st1{fill:#fff;stroke:#70ad47;stroke-dasharray:15,9;stroke-width:1}.st2,.st3{stroke:#ed7d31}.st2{marker-end:url(#mrkr13-9);stroke-linecap:round;stroke-linejoin:round;stroke-width:1}.st3{fill:#ed7d31;fill-opacity:1;stroke-opacity:1;stroke-width:.28409090909091}.st4{fill:#4672c4;stroke:#c8c8c8;stroke-width:.25}.st5{fill:#feffff;font-family:Calibri;font-size:.666664em}.st6{fill:none;stroke:none;stroke-width:.25}.st7{fill:#4672c4;font-family:Calibri;font-size:.833336em}.st8{font-size:1em}.st9{fill:none;fill-rule:evenodd;font-size:12px;overflow:visible;stroke-linecap:square;stroke-miterlimit:3}</style><defs id="Markers"><g id="lend13"><path d="M 3 1 L 0 0 L 3 -1 L 3 1" style="stroke:none"/></g><marker id="mrkr13-9" class="st3" markerUnits="strokeWidth" orient="auto" overflow="visible" refX="-10.56"><use transform="scale(-3.52,-3.52)" xlink:href="#lend13"/></marker></defs><g><title>Page-1</title><g id="group1008-1" transform="translate(1,-11.1312)"><title>Sheet.1008</title><g id="shape1009-2" transform="translate(0,-300.375)"><title>Sheet.1009</title><path d="M0 435.88 L576 435.88 L576 341.38 L0 341.38 L0 435.88 Z" class="st1"/></g><g id="shape1010-4" transform="translate(524.381,63.1312) rotate(90)"><title>Sheet.1010</title><path d="M0 435.88 L357.31 435.88" class="st2"/></g><g id="shape1011-10" transform="translate(938.756,72.5062) rotate(90)"><title>Sheet.1011</title><path d="M0 435.88 L348.31 435.88" class="st2"/></g><g id="shape1012-15" transform="translate(800.381,63.5062) rotate(90)"><title>Sheet.1012</title><path d="M0 435.88 L361.81 435.88" class="st2"/></g><g id="shape1013-20" transform="translate(660.881,63.5062) rotate(90)"><title>Sheet.1013</title><path d="M0 435.88 L357.31 435.88" class="st2"/></g><g id="shape1014-25" transform="translate(175.5,-372.375)"><title>Process.7</title><desc>__init__</desc><rect width="99" height="18" x="0" y="417.881" class="st4"/><text x="36.25" y="429.28" class="st5">__init__</text></g><g id="shape1015-28" transform="translate(175.5,-397.125)"><title>Process.9</title><desc>ModelBenchmark</desc><rect width="99" height="27" x="0" y="408.881" class="st6"/><text x="13.34" y="425.38" class="st7">Model<tspan class="st8">Benchmark</tspan></text></g><g id="shape1016-32" transform="translate(312.75,-397.125)"><title>Process.10</title><desc>PytorchBase</desc><rect width="99" height="27" x="0" y="408.881" class="st6"/><text x="24.3" y="425.38" class="st7">PytorchBase</text></g><g id="shape1017-35" transform="translate(455.625,-397.125)"><title>Process.11</title><desc>PytorchBERT</desc><rect width="99" height="27" x="0" y="408.881" class="st6"/><text x="23.55" y="425.38" class="st7">PytorchBERT</text></g><g id="shape1018-38" transform="translate(315,-372.375)"><title>Process.12</title><desc>__init__ enable some pytorch options</desc><rect width="99" height="18" x="0" y="417.881" class="st4"/><text x="36.25" y="424.48" class="st5">__init__<tspan x="2.12" class="st8" dy="1.2em">enable some pytorch options</tspan></text></g><g id="shape1019-42" transform="translate(453.375,-363.375)"><title>Process.13</title><desc>__init__ select optimizer type</desc><rect width="99" height="27" x="0" y="408.881" class="st4"/><text x="36.25" y="419.98" class="st5">__init__<tspan x="15.41" class="st8" dy="1.2em">select optimizer type</tspan></text></g><g id="shape1020-46" transform="translate(175.5,-309.375)"><title>Process.14</title><desc>add_parser_auguments() E.g. num_ steps, num_Warmup, batch_size</desc><rect width="99" height="27" x="0" y="408.881" class="st4"/><text x="8.42" y="415.18" class="st5">add_parser_auguments<tspan class="st8">()</tspan><tspan x="22.89" class="st8" dy="1.2em">E.g. num_ steps, </tspan><tspan x="6.74" class="st8" dy="1.2em">num_</tspan>Warmup,<tspan class="st8"> </tspan>batch_size</text></g><g id="shape1021-53" transform="translate(453.375,-309.375)"><title>Process.15</title><desc>add_parser_auguments() E.g. hidden_size, sequence_length</desc><rect width="99" height="27" x="0" y="408.881" class="st4"/><text x="8.42" y="415.18" class="st5">add_parser_auguments<tspan class="st8">()</tspan><tspan x="22.38" class="st8" dy="1.2em">E.g. </tspan>hidden_size<tspan class="st8">,</tspan><tspan x="21.64" class="st8" dy="1.2em">sequence_length</tspan></text></g><g id="shape1022-60" transform="translate(315,-241.875)"><title>Process.18</title><desc>_init_distributed_setting()</desc><rect width="99" height="18" x="0" y="417.881" class="st4"/><text x="6.81" y="429.28" class="st5">_<tspan class="st8">init_distributed_setting</tspan>()</text></g><g id="shape1023-64" transform="translate(454.5,-214.875)"><title>Process.19</title><desc>_generate_dataset()</desc><rect width="99" height="18" x="0" y="417.881" class="st4"/><text x="16.32" y="429.28" class="st5">_<tspan class="st8">generate_dataset</tspan>()</text></g><g id="shape1024-68" transform="translate(315,-183.375)"><title>Process.20</title><desc>_init_dataloader()</desc><rect width="99" height="18" x="0" y="417.881" class="st4"/><text x="20.11" y="429.28" class="st5">_<tspan class="st8">init_dataloader</tspan>()</text></g><g id="shape1025-72" transform="translate(454.5,-147.375)"><title>Process.21</title><desc>_create_model()</desc><rect width="99" height="18" x="0" y="417.881" class="st4"/><text x="22.45" y="429.28" class="st5">_<tspan class="st8">create_model</tspan>()</text></g><g id="shape1027-76" transform="translate(454.5,-99)"><title>Process.23</title><desc>_inference_step()</desc><rect width="99" height="18" x="0" y="417.881" class="st4"/><text x="20.7" y="429.28" class="st5">_inference_step()</text></g><g id="shape1028-79" transform="translate(39,-372.75)"><title>Process.1000</title><desc>__init__</desc><rect width="99" height="18" x="0" y="417.881" class="st4"/><text x="36.25" y="429.28" class="st5">__init__</text></g><g id="shape1029-82" transform="translate(39,-397.5)"><title>Process.1001</title><desc>Benchmark</desc><rect width="99" height="27" x="0" y="408.881" class="st6"/><text x="26.52" y="425.38" class="st7">Benchmark</text></g><g id="shape1030-85" transform="translate(40.5,-309.375)"><title>Process.1002</title><desc>add_parser_auguments() E.g. run_count, duration</desc><rect width="99" height="27" x="0" y="408.881" class="st4"/><text x="8.42" y="419.98" class="st5">add_parser_auguments<tspan class="st8">()</tspan><tspan x="9.92" class="st8" dy="1.2em">E.g. run_count, duration</tspan></text></g><g id="shape1031-90" transform="translate(40.5,-274.5)"><title>Process.17</title><desc>parse_args()</desc><rect width="99" height="18" x="0" y="417.881" class="st4"/><text x="29.36" y="429.28" class="st5">parse_args<tspan class="st8">()</tspan></text></g><g id="shape1032-94" transform="translate(40.5,-40.5)"><title>Process.1004</title><desc>__check_result_format()</desc><rect width="99" height="18" x="0" y="417.881" class="st4"/><text x="9.33" y="429.28" class="st5">__check_result_format()</text></g><g id="shape1033-97" transform="translate(315,-66.375)"><title>Process.1005</title><desc>_postprocess()</desc><rect width="99" height="18" x="0" y="417.881" class="st4"/><text x="25.55" y="429.28" class="st5">_postprocess<tspan class="st8">()</tspan></text></g></g></g></svg>